<svg height='100px' width='100px'  fill="#000000" xmlns="http://www.w3.org/2000/svg" xmlns:xlink="http://www.w3.org/1999/xlink" xml:space="preserve" version="1.1" style="shape-rendering:geometricPrecision;text-rendering:geometricPrecision;image-rendering:optimizeQuality;" viewBox="0 0 60000 60000" x="0px" y="0px" fill-rule="evenodd" clip-rule="evenodd"><defs><style type="text/css">
   
    .fil0 {fill:#000000;fill-rule:nonzero}
   
  </style></defs><g><path class="fil0" d="M28706.63 20889.91c-49.3,71.66 -88.02,160.13 -115.4,261.11 31.72,-89.21 70.04,-176.46 115.4,-261.11zm18076.07 -9483.37l-39.52 -49.77 -35.84 -44.2 -36.31 -43.92 -36.77 -43.63 -37.21 -43.35 -37.69 -43.07 -38.14 -42.78 -38.6 -42.48 -39.06 -42.17 -365.26 341.44 35.86 38.73 35.44 39 35.02 39.26 34.59 39.55 34.19 39.81 33.75 40.07 33.33 40.32 32.92 40.58 36.6 46.11 392.7 -309.5zm-5605.25 10026.84l58.28 -0.22 80.57 -0.91 80.13 -1.54 79.62 -2.14 79.18 -2.75 78.73 -3.35 55 -2.79 -27.26 -499.26 -51.02 2.59 -74.75 3.19 -75.26 2.61 -75.76 2.04 -76.23 1.46 -76.73 0.87 -58.28 0.22 3.78 499.98zm2039.44 -224.22l30.7 -7.11 67.96 -16.37 67.51 -16.9 67.02 -17.43 66.58 -17.95 66.08 -18.47 65.6 -18.97 68.96 -20.67 -149.88 -477 0.6 -0.18 -60.76 18.17 -61.26 17.71 -61.72 17.25 -62.18 16.77 -62.68 16.29 -63.15 15.82 -63.64 15.33 -30.7 7.11 114.96 486.6zm1927.04 -749.45l44.5 -25.98 52.81 -31.51 52.33 -31.94 51.85 -32.34 51.39 -32.76 50.91 -33.17 50.39 -33.54 49.94 -33.95 34.18 -23.73 -287.22 -409.28 -30.1 20.91 -45.86 31.17 -46.33 30.84 -46.77 30.47 -47.21 30.1 -47.69 29.74 -48.15 29.38 -48.61 29.01 -44.5 25.98 254.14 430.6zm1591.21 -1332.94l15.39 -18.39 35.92 -43.77 35.45 -44.06 34.97 -44.37 34.47 -44.61 34 -44.88 33.51 -45.16 33.03 -45.43 32.55 -45.68 26.93 -38.59 -411.4 -284.16 -24.17 34.61 -29.73 41.74 -30.17 41.49 -30.61 41.24 -31.06 41.02 -31.51 40.79 -31.93 40.49 -32.39 40.26 -32.84 40.03 -15.39 18.39 384.98 319.04zm1026.83 -1807.58l14.11 -40.33 17.59 -51.8 17.12 -51.94 16.64 -52.09 16.15 -52.19 15.68 -52.31 15.21 -52.46 14.72 -52.59 14.24 -52.65 10.23 -39.21 -484.38 -124 -9.09 34.83 -13.08 48.37 -13.5 48.23 -13.95 48.1 -14.38 48.01 -14.83 47.89 -15.24 47.73 -15.7 47.62 -16.13 47.5 -14.11 40.33 472.7 162.96zm347.82 -2044.7l0 -29.96 -0.45 -54.46 -0.93 -54.48 -1.39 -54.46 -1.87 -54.47 -2.34 -54.45 -2.8 -54.42 -3.28 -54.43 -3.75 -54.4 -4.13 -53.32 -498.34 40.8 3.81 49.04 3.45 50.1 3.02 50.09 2.58 50.14 2.16 50.15 1.71 50.13 1.29 50.16 0.85 50.12 0.41 50.16 0 29.96 500 -2zm-338.56 -2045.05l-8.44 -24.74 -18.24 -51.94 -18.71 -51.85 -19.18 -51.7 -19.64 -51.54 -20.11 -51.4 -20.57 -51.24 -21.03 -51.09 -21.51 -50.95 -20.79 -48.02 -458 200.6 19.03 43.96 19.77 46.83 19.35 46.99 18.93 47.14 18.49 47.28 18.08 47.44 17.64 47.54 17.21 47.67 16.78 47.84 8.44 24.74 472.5 -163.56zm-28324.68 -9649.01c164.1,16.16 327.79,34.45 491.49,54.24l60.44 -496.34c-167.35,-20.23 -334.69,-38.92 -502.45,-55.44l-49.48 497.54zm-6181.54 9505.77c-58.03,-154.46 -114.58,-309.51 -169.57,-465.08l-471.56 166.24c56.07,158.68 113.78,316.85 172.97,474.4l468.16 -175.56zm-811.46 -2832.46c-26.45,-159.83 -48.72,-320.11 -66.14,-481.18l-497.2 52.84c18.49,170.55 41.95,340.14 69.96,509.38l493.38 -81.04zm163.26 -2842.53l19.2 -57.56 15.78 -46.32 15.93 -45.99 16.07 -45.62 16.23 -45.28 16.36 -44.93 16.5 -44.55 16.65 -44.2 16.78 -43.84 15.38 -39.49 -465.46 -182.64 -16.36 42.05 -17.78 46.42 -17.61 46.78 -17.44 47.09 -17.28 47.43 -17.11 47.76 -16.95 48.12 -16.79 48.45 -16.62 48.82 -20.02 60 474.54 157.5zm1419.09 -2481.58l23.2 -23.4 24.54 -24.38 24.66 -24.13 24.76 -23.86 24.87 -23.6 24.97 -23.33 25.09 -23.08 25.22 -22.86 25.29 -22.57 25.38 -22.28 25.54 -22.09 25.62 -21.83 25.71 -21.55 25.75 -21.26 -316.8 -386.82 -28.69 23.68 -28.69 24.05 -28.54 24.31 -28.4 24.55 -28.34 24.9 -28.17 25.15 -28.02 25.38 -27.91 25.68 -27.79 25.97 -27.65 26.24 -27.52 26.52 -27.38 26.79 -27.26 27.08 -23.2 23.4 353.76 353.34zm2493.6 -1287.1c158.12,-30.67 316.69,-55.2 476.55,-74.79l-59.54 -496.44c-171.38,20.92 -341.65,47.29 -511.15,80.17l94.14 491.06zm23496.85 1454.7l36.51 15.9 41.55 18.77 41.74 19.56 42 20.39 42.23 21.18 42.41 21.99 42.68 22.84 42.93 23.67 43.12 24.51 43.4 25.4 255.16 -430 -48.74 -28.52 -48.66 -27.65 -48.49 -26.75 -48.36 -25.88 -48.29 -25.03 -48.13 -24.14 -48 -23.29 -47.92 -22.46 -47.79 -21.61 -36.51 -15.9 -202.84 457.02zm-13051.81 -1263.43l50.29 40.83 91.63 73.59 91.11 72.35 90.59 71.12 72.46 56.24 305.44 -395.86 -70.24 -54.52 -88.39 -69.4 -88.95 -70.63 -89.51 -71.89 -50.29 -40.83 -314.14 389zm1639.22 1193.94l65.92 41.94 82.28 51.55 81.81 50.46 81.33 49.39 80.91 48.34 41.48 24.39 251.8 -431.96 -38.36 -22.55 -77.81 -46.5 -78.33 -47.57 -78.83 -48.62 -79.32 -49.71 -65.92 -41.94 -266.96 422.78zm1806.66 952.54l40.28 16.41 72.44 28.77 72.03 27.87 71.67 27 71.27 26.1 70.87 25.24 70.5 24.38 14.15 4.74 156.74 -474.8 -75.83 -26.12 -66.59 -23.7 -66.99 -24.54 -67.43 -25.4 -67.89 -26.27 -68.32 -27.13 -40.28 -16.41 -186.62 463.86zm1999.96 516.69l52.08 5.03 61.61 5.32 61.3 4.67 60.99 4.02 60.62 3.37 60.32 2.76 59.99 2.11 59.67 1.52 42.67 0.65 5.12 -499.98 -37.65 -0.57 -54.63 -1.38 -54.93 -1.95 -55.26 -2.52 -55.6 -3.09 -55.87 -3.68 -56.24 -4.29 -56.57 -4.88 -52.08 -5.03 -45.54 497.92zm2067.28 -152.71l57.65 -14.38 50.55 -13.05 50.29 -13.38 36.67 -10.04c24.12,12.46 48.25,24.84 72.4,37.11 846.31,429.99 2506.84,882.89 4109.65,997.33 860.71,61.45 1710.32,26.11 2418.69,-161.05 745.81,-197.05 1339.52,-562.69 1642.45,-1158.91 113.63,-223.66 184.43,-477.09 204.85,-763.05 17.83,-249.77 -5.85,-479.12 -65.11,-689.33 -174.4,-618.72 -646.62,-1051.28 -1268.99,-1340.4 -588.45,-273.35 -1314.19,-417.38 -2040.01,-469.22 -1005.46,-71.79 -2021.5,33.37 -2669.11,215.92 -911.49,256.94 -1791.56,676.52 -2523.27,1354.2 -279.37,258.74 -536.28,554.25 -764.13,891.59 -604.06,-381.3 -1204.5,-803.98 -1802.59,-1225 -1989.02,-1400.17 -3952.89,-2782.63 -6068.17,-2680.72 -9.6,0.45 -19.05,1.45 -28.32,2.93 -780.11,127.84 -1232.8,376.06 -1495.62,694.05 -273.27,330.63 -331.7,714.51 -330.96,1113 2.56,1385.71 -272.9,2112.32 -741.97,2458.03 -466.38,343.73 -1165.28,336.13 -1986.73,236.11 -261.36,-31.81 -540.7,-74.1 -828.84,-117.71 -482.2,-72.99 -988.97,-149.69 -1513.87,-192.25 -1023.09,-82.93 -1897.12,240.63 -2598.54,810.78 -786.31,639.14 -1349.69,1587.97 -1656.75,2615.46 -517.7,1732.29 165.79,3218.1 867.28,4743.02 601.39,1307.3 1216.73,2644.96 1029.24,4153.67 -16.71,136.99 80.79,261.61 217.78,278.32 136.99,16.71 261.61,-80.79 278.32,-217.78 204.53,-1645.81 -441.16,-3049.46 -1072.22,-4421.25 -661.61,-1438.22 -1306.25,-2839.57 -841.88,-4393.4 280.25,-937.76 788.23,-1798.71 1492.69,-2371.32 605.29,-492.01 1360.32,-771.18 2245.02,-699.46 504.66,40.91 1003.79,116.47 1478.71,188.35 289.15,43.76 569.45,86.19 844.46,119.67 933.01,113.61 1740.39,112.23 2340.25,-329.87 597.17,-440.12 947.98,-1291.48 945.09,-2860.37 -0.55,-297.1 37.84,-577.06 217.68,-794.64 188.85,-228.49 541.73,-411.91 1176.42,-517.81 1939.25,-86.71 3829.47,1243.78 5743.83,2591.39 605.66,426.35 1213.7,854.36 1830.1,1242.97 -249.45,455.7 -451.22,977.37 -593.02,1574.51l0.71 0.17c-2.6,11.04 -4.5,22.39 -5.6,34.01 -159.42,1674.01 295.35,2569.3 1087.61,3036.63 765.77,451.71 1822.45,469.54 2931.52,409.19 3054.07,-166.19 5429.81,715.06 6797.17,1995.22 575.06,538.39 968.72,1145.99 1155.06,1772.47 183.03,615.39 165.33,1251.02 -78.41,1857.54 -409.62,1019.31 -1456,1966.6 -3257.47,2622.15 -6.18,2.08 -12.32,4.41 -18.42,7 -925.91,394.76 -1735.1,476.1 -2465.31,345.28 39.11,-87.69 75.87,-176.35 110.43,-266.53l-466.36 -180.28c-42.14,109.98 -87.82,217.47 -137.46,323.66 -1305.48,-419.17 -2363.14,-1503.87 -3420.68,-2588.88 -917.33,-941.14 -1834.7,-1882.29 -2925.75,-2436.75 -8.48,-4.75 -17.32,-9.07 -26.52,-12.89 -1345.09,-562.38 -2645.81,-775.7 -3827.23,-689.39 -1140.76,83.34 -2170.72,445.98 -3023.59,1043.79 -854.89,599.23 -1529.5,1432.68 -1957.4,2456.1 -403.67,965.49 -587.52,2099.3 -495.16,3363.44 122.84,1681.48 1524.91,2471.18 2879.38,3234.04 1151.43,648.51 2265.11,1275.78 2348.77,2401.78 22.02,296.53 -24.56,578.72 -134.78,848.2 -112.86,275.94 -293.86,543.25 -537.64,803.29 -94.38,100.31 -89.57,258.16 10.74,352.54 100.31,94.38 258.16,89.57 352.54,-10.74 284.06,-303.02 497.83,-621.46 635.3,-957.59 140.12,-342.57 199.51,-698.89 171.88,-1070.86 -103.62,-1394.62 -1332.32,-2086.67 -2602.67,-2802.16 -1239.34,-698.02 -2522.25,-1420.6 -2625.48,-2833.66 -86.51,-1184.18 83.62,-2241.3 458.06,-3136.88 390.95,-935.06 1004.94,-1694.89 1781.62,-2239.3 778.69,-545.81 1723.4,-877.22 2773.59,-953.95 1104.6,-80.69 2325.49,120.33 3593.55,649.34 1017.24,517.14 1905.34,1428.22 2793.37,2339.31 1869.72,1918.28 3739.5,3836.5 6927.38,2480.03 1946.54,-708.78 3088.4,-1760.35 3548.21,-2904.55 287.25,-714.8 308.69,-1461.95 94.03,-2183.7 -211.37,-710.64 -652.32,-1394.62 -1293.74,-1995.13 -1456.76,-1363.86 -3963.49,-2304.06 -7162.41,-2129.98 -1028.08,55.94 -1998.96,44.51 -2652.22,-340.83 -623.52,-367.79 -978.83,-1111.62 -847.43,-2537.76 128.63,-537.46 308.77,-1006.9 530.03,-1416.8 158.34,93.99 317.31,184.79 477.02,271.73l43.79 177.68zm376.45 -518.7l-31.44 -98.27 -39.58 12.53 -45.79 14.18 -11.51 3.49c-170.34,-91.69 -340.35,-188.36 -510.05,-289.07 202.77,-298.06 430.11,-558.95 676.53,-787.17 665.75,-616.58 1476.26,-1001.11 2320.13,-1238.98 600.27,-169.2 1550.55,-266.08 2499.19,-198.34 671.46,47.95 1336.86,178.41 1866.19,424.3 495.44,230.15 867.76,561.72 997.51,1022.04 43.85,155.57 61.17,328.25 47.53,519.41 -15.55,217.88 -68.12,408.25 -152.13,573.61 -230.34,453.35 -710.91,739.08 -1324.09,901.09 -650.65,171.91 -1444.86,203.39 -2256.57,145.43 -1538.85,-109.87 -3121.03,-538.57 -3920.21,-944.61 -38.59,-19.61 -77.16,-39.49 -115.71,-59.64zm1540.22 -183.81c151.82,-67.52 303.43,-135.59 455.6,-202.33l-200.5 -458.04c-153.07,67.16 -305.6,135.61 -458.34,203.53l203.24 456.84zm1819.01 -691.64l28.03 -6.28 37.74 -8.08 37.69 -7.66 37.66 -7.26 37.66 -6.84 37.59 -6.42 37.56 -5.98 37.6 -5.55 37.53 -5.1 37.52 -4.64 37.57 -4.2 37.52 -3.74 18.3 -1.6 -40.12 -498.38 -24.56 2.14 -43.66 4.34 -43.51 4.86 -43.46 5.38 -43.33 5.9 -43.18 6.37 -43.14 6.86 -43.01 7.34 -42.88 7.8 -42.8 8.24 -42.73 8.7 -42.6 9.12 -28.03 6.28 107.04 488.4zm-4691.09 20545.36c-99.43,112.82 -207.84,211.66 -328.51,301.35l297.94 401.54c149.51,-111.09 283.62,-233.82 406.79,-373.57l-376.22 -329.32zm-6178.13 -17451.3l6.07 23.86 8.08 30.59 8.35 30.49 8.6 30.35 8.85 30.23 9.11 30.14 9.37 30.06 9.63 29.95 9.87 29.83 10.11 29.69 10.36 29.6 10.61 29.51 10.85 29.4 11.09 29.27 11.32 29.19 11.56 29.04 15.24 37.24 460.74 -194.2 -12.14 -29.72 -10.04 -25.24 -9.82 -25.29 -9.61 -25.39 -9.39 -25.44 -9.17 -25.51 -8.96 -25.62 -8.75 -25.69 -8.53 -25.75 -8.29 -25.79 -8.07 -25.88 -7.85 -25.98 -7.63 -26.05 -7.4 -26.13 -7.17 -26.17 -6.92 -26.23 -6.07 -23.86 -484 125.5zm1027.15 1831.64c116.43,128.88 238.41,252.87 365.26,371.51l340.2 -366.42 0.08 0.07c-116.64,-109.86 -228.17,-222.61 -335.6,-341.52l-369.94 336.36zm1598.49 1305.27c146.12,90.03 294.39,175.56 445.4,257.11l236.74 -440.4c-142.59,-77.04 -282.54,-157.77 -420.52,-242.79l-261.62 426.08zm3868.33 1242.9c164.1,25.76 328.21,51.47 492.15,78.18l80.92 -493.4c-164.94,-27.24 -330.29,-52.79 -495.45,-78.72l-77.62 493.94zm1928.81 381.94c151.83,43.94 306.17,94.94 453.49,152.2l181.36 -465.96c-161.6,-62.15 -327.89,-117.93 -494.21,-166.06l-140.64 479.82zm1671.23 861.07c33.9,28.79 67.14,57.94 100.23,87.66l41.17 37.76c20.56,19.25 40.92,38.58 61.21,58.11 27.29,26.64 54.18,53.43 80.93,80.61l40.14 41.65 18.6 19.71 364.68 -342.08 -20.94 -22.17 -22.39 -23.38 -22.43 -23.11 -22.55 -22.94 -22.63 -22.68 -22.63 -22.39 -22.76 -22.22 -22.87 -22.01 -22.93 -21.77 -46.01 -42.78 -23.13 -21.07 -23.21 -20.85 -23.28 -20.64 -23.38 -20.42 -40.74 -34.89 -325.08 379.9zm1155.35 1493.06l9.94 19.75 14.07 28.5 13.81 28.49 13.58 28.59 13.35 28.62 13.09 28.64 12.85 28.67 12.62 28.75 12.39 28.79 12.13 28.78 11.92 28.85 11.67 28.85 11.43 28.91 11.21 28.95 14.81 39.31 469.5 -171.94 -17.39 -46.21 -12.53 -32.35 -12.79 -32.33 -13.07 -32.33 -13.3 -32.23 -13.59 -32.24 -13.85 -32.15 -14.1 -32.13 -14.39 -32.11 -14.65 -32.06 -14.91 -31.98 -15.18 -31.95 -15.47 -31.93 -15.73 -31.84 -9.94 -19.75 -447.48 223.08zm455.85 1819.53c1.82,62.25 2.13,124.26 1.64,186.53 -1.46,96.56 -5.46,191.77 -12.26,288.1l498.64 36.8 4.16 -61.55 3.55 -64.13 1.48 -32.19c1.27,-32.23 2.35,-64.4 3.24,-96.65l1.15 -64.62 0.34 -64.72 -0.48 -64.94c-0.44,-25.3 -0.9,-50.59 -1.64,-75.89l-499.82 13.26zm-1339.28 3430.94c-110.46,103.01 -231.09,199.92 -357.49,282.72l271.54 419.84 26.92 -17.83 20.65 -14 20.59 -14.21 20.5 -14.41 20.4 -14.59 20.39 -14.84 40.47 -30.21 40.15 -31.01 39.92 -31.85 39.57 -32.59 39.23 -33.33 38.92 -34.1c19.68,-17.65 39.33,-35.34 58.66,-53.37l-340.42 -366.22zm-1631.92 652.75c-133.56,-4.24 -273.74,-30.59 -396.83,-83.48l-199.14 458.62c179.85,77.72 369.3,114.57 564.42,123.97l11.11 0.47 20.44 -499.58zm-1195.92 -1157.7c-103.32,-146.55 -217.36,-287.9 -342.39,-416.52l-357.16 349.92c104.58,104.58 206.3,234.7 291.53,355.58l408.02 -288.98zm-1913.43 -991.2c-187.58,37.9 -369.98,112.16 -536.64,205.35l245.52 435.56c122.39,-68.28 255.55,-123.64 393.3,-151.47l-102.18 -489.44zm-1350.05 1680.23c11.63,192.83 57.99,384.51 130.47,563.36l462.8 -189.28c-52.33,-128.67 -85.96,-267.79 -94.33,-406.58l-498.94 32.5zm1138.53 1788.7c116.07,113.69 230.52,229.26 340.77,348.62l367.26 -339.3c-116.19,-125.41 -235.99,-246.86 -358.11,-366.48l-349.92 357.16zm1116.16 1503.03c49.05,135.16 82.09,276.44 93.02,419.95l498.76 -35.18c-14.34,-189.43 -56.41,-375.19 -121.18,-553.67l-470.6 168.9zm-3704.52 -458.14c115.08,-99.78 193.24,-268.88 229.27,-477.56 57.31,-332.02 5.89,-744.32 -167.87,-1158.1l-0.05 -0.14c-147.38,-350.93 -354.9,-637.93 -582.74,-833.49 -184.68,163.78 -295.65,360.72 -347.67,570.11 -50.7,204.07 -48.56,424.63 -5.93,642.72 44.49,227.6 131.67,448.52 248.52,643.81 167.67,280.23 390.27,504.73 626.47,612.65zm283.67 13073.99c34.41,-1101.43 220.32,-2141.51 410.6,-3205.91 247.73,-1385.72 503.1,-2814.21 421.92,-4447.25 -30.82,-619.89 -130.45,-1277.97 -295.6,-1979.78 472.29,3093.16 -29.65,4732.17 -548.55,6345.83 -173.96,784.7 -188.61,1622.13 -100.27,2477.85 27.68,268.17 65.57,538.27 111.9,809.26zm1204.15 8998.36c0,-2610.35 -594.41,-4233.44 -1090.69,-5588.58 -171.77,-469.03 -332.22,-907.14 -457.9,-1354.1 -157.89,-561.52 -296.98,-1131.4 -403.09,-1702.08l0 20634.78c0,26.04 2.05,48.86 5.93,68.63 19.68,100.27 96.96,177.91 199.31,233.11 266.55,143.76 1274.65,143.76 1541.2,0 102.35,-55.2 179.63,-132.84 199.31,-233.11 3.88,-19.77 5.93,-42.59 5.93,-68.63l0 -11990.02zm-1981.47 -12509.61c0.81,-2.59 1.63,-5.16 2.49,-7.73 621.23,-1931.66 1219.26,-3898.37 -51.88,-8683.26 -219.69,-45.27 -439.07,-143.57 -647.46,-287.58 -393.83,-272.15 -753.46,-714.87 -986.94,-1264.5 -3.91,-8.47 -7.54,-17.11 -10.87,-25.89 -229.17,-552.13 -293.69,-1118.38 -212.48,-1588.88 92.73,-537.13 372.24,-962.66 816.51,-1149.21 402.49,-169.02 850.62,-103.64 1264.98,141.29l0.75 0.45c42.05,24.88 83.76,51.6 125.03,80.12 393.83,272.15 753.46,714.87 986.94,1264.5 3.91,8.47 7.54,17.11 10.87,25.89 229.17,552.13 293.69,1118.38 212.48,1588.88 -16.63,96.31 -39.29,189.01 -67.8,277.41l1.77 3.59c1741.33,3640.55 1278.65,6531.44 824.68,9367.89 -354.8,2216.78 -704.04,4398.91 81.36,6851.31l29.55 92.19c281.42,877.49 401.49,1251.87 401.49,2248.98l0 3574.16 0 11990.02c0,75.9 -7.44,149.88 -21.55,221.75 -71.53,364.44 -304.38,620.66 -605.57,783.11 -521.27,281.16 -1776.17,281.16 -2297.44,0 -301.19,-162.45 -534.04,-418.67 -605.57,-783.11 -14.11,-71.87 -21.55,-145.85 -21.55,-221.75l0 -20855.8c0,-17.48 1.12,-34.68 3.3,-51.57 76.58,-1447.07 411.32,-2487.35 746.09,-3527.53l20.82 -64.73z"></path></g></svg>